<?xml version="1.0" encoding="utf-8"?>
<!-- Generator: Adobe Illustrator 27.5.0, SVG Export Plug-In . SVG Version: 6.00 Build 0)  -->
<svg version="1.1" xmlns="http://www.w3.org/2000/svg" xmlns:xlink="http://www.w3.org/1999/xlink" x="0px" y="0px"
	 viewBox="0 0 3710 3710" style="enable-background:new 0 0 3710 3710;" xml:space="preserve">
<g id="Background">
	<g>
		<g>
			<rect style="fill:#FFFFFF;" width="3710" height="3710"/>
		</g>
	</g>
</g>
<g id="Illustration">
	<g>
		<path style="fill:#F4F7FA;" d="M1907.584,3118.551c-231.266,46.149-699.983,139.682-1013.542-84.148
			C324.962,2628.174,365.065,1246.63,1082.555,663.075c62.031-50.451,385.6-303.536,828.671-275.923
			c768.521,47.898,1449.699,912.455,1315.911,1605.336c-78.3,405.51-420.839,675.029-561.859,785.987
			C2607.16,2824.203,2333.175,3033.624,1907.584,3118.551z"/>
		<g>
			<path style="fill:#97A6B7;" d="M2754.313,562.122L945.974,451.843c-41.649-2.143-79.141,45.769-79.141,85.999v2454.716
				c0,55.793,54.063,67.023,95.712,62.538l1791.768-192.902c32.73-3.524,59.153-35.097,59.153-70.535V629.333
				C2813.466,593.895,2787.043,563.807,2754.313,562.122z"/>
			<path style="fill:#D8DEE8;" d="M2784.055,542.624L972.144,448.661c-41.649-2.16-75.569,28.949-75.569,69.493v2473.895
				c0,40.544,33.92,69.732,75.569,65.213l1811.911-196.595c32.729-3.551,59.153-35.371,59.153-71.086V610.36
				C2843.208,574.645,2816.784,544.321,2784.055,542.624z"/>
			<path style="opacity:0.74;fill:#FFFFFF;" d="M972.144,3023.714c-22.465,2.391-40.787-13.434-40.787-35.282V519.802
				c0-21.848,18.322-38.711,40.787-37.592l1811.911,90.227c17.693,0.881,32.055,17.317,32.055,36.64v2183.323
				c0,19.323-14.363,36.573-32.055,38.456L972.144,3023.714z"/>
			<polygon style="fill:#FFFFFF;" points="2667.274,2772.306 1117.539,2929.71 1117.539,652.187 2667.274,713.714 			"/>
			<g>
				<g>
					<path style="fill:#D8DEE8;" d="M1459.98,1745.383v131.231l-129.667,4.614v-132.482L1459.98,1745.383z M1474.471,1730.511
						l-158.649,4.114v161.618l158.649-5.646V1730.511z"/>
					<polygon style="fill:#D8DEE8;" points="2527.786,1853.113 1532.891,1888.518 1532.891,1728.997 2527.786,1703.202 					"/>
				</g>
				<g>
					<path style="fill:#D8DEE8;" d="M1459.98,1978.847v131.214l-129.667,6.44v-132.466L1459.98,1978.847z M1474.471,1963.765
						l-158.649,6.346v161.618l158.649-7.879V1963.765z"/>
					<polygon style="fill:#D8DEE8;" points="2527.786,2071.542 1532.891,2120.95 1532.891,1961.428 2527.786,1921.63 					"/>
				</g>
				<g>
					<path style="fill:#D8DEE8;" d="M1459.98,2212.315v131.193l-129.667,8.265v-132.446L1459.98,2212.315z M1474.471,2197.019
						l-158.649,8.579v161.619l158.649-10.112V2197.019z"/>
					<polygon style="fill:#D8DEE8;" points="2527.786,2289.97 1532.891,2353.381 1532.891,2193.86 2527.786,2140.059 					"/>
				</g>
				<g>
					<path style="fill:#D8DEE8;" d="M1459.98,2445.785v131.166l-129.667,10.09v-132.42L1459.98,2445.785z M1474.471,2430.273
						l-158.649,10.812v161.619l158.649-12.345V2430.273z"/>
					<polygon style="fill:#D8DEE8;" points="2527.786,2508.398 1532.891,2585.813 1532.891,2426.291 2527.786,2358.487 					"/>
				</g>
				<polygon style="fill:#D8DEE8;" points="1946.707,1574.077 1315.821,1584.784 1315.821,830.49 1946.707,848.227 				"/>
				<polygon style="fill:#D8DEE8;" points="2527.786,956.712 2045.789,946.023 2045.789,851.012 2527.786,864.563 				"/>
				<polygon style="fill:#D8DEE8;" points="2527.786,1161.488 2045.789,1157.16 2045.789,1109.655 2527.786,1115.414 				"/>
				<polygon style="fill:#D8DEE8;" points="2527.786,1237.427 2045.789,1235.457 2045.789,1187.951 2527.786,1191.352 				"/>
				<polygon style="fill:#D8DEE8;" points="2527.786,1313.364 2045.789,1313.753 2045.789,1266.247 2527.786,1267.29 				"/>
			</g>
		</g>
		<g>
			
				<linearGradient id="SVGID_1_" gradientUnits="userSpaceOnUse" x1="4533.3052" y1="2619.4751" x2="1155.0505" y2="1216.6387" gradientTransform="matrix(0.9905 -0.1375 0.1375 0.9905 -35.5196 392.1444)">
				<stop  offset="0.1" style="stop-color:#311944"/>
				<stop  offset="0.2658" style="stop-color:#371B47"/>
				<stop  offset="0.477" style="stop-color:#462150"/>
				<stop  offset="0.515" style="stop-color:#4A2252"/>
				<stop  offset="0.6806" style="stop-color:#5C295C"/>
				<stop  offset="1" style="stop-color:#893976"/>
			</linearGradient>
			<path style="fill:url(#SVGID_1_);" d="M1641.643,1628.156c30.308,10.443,64.045-7.695,75.354-40.512
				c11.307-32.817-4.095-67.888-34.403-78.331c-1.571-0.542-3.155-0.959-4.739-1.35c2.905-17.693,4.496-35.34,4.782-52.812
				c1.622-0.229,3.247-0.483,4.881-0.86c31.902-7.365,53.416-40.606,48.056-74.251c-5.36-33.643-35.568-54.946-67.469-47.581
				c-1.669,0.386-3.289,0.882-4.898,1.404c-5.695-16.25-12.586-31.94-20.612-46.938c1.364-1.076,2.718-2.179,4.022-3.391
				c24.947-23.198,28.476-62.639,7.884-88.093c-20.594-25.452-57.512-27.279-82.459-4.08c-1.279,1.189-2.462,2.445-3.628,3.716
				c-12.591-10.551-26.115-20.071-40.485-28.479c0.703-1.62,1.385-3.256,1.971-4.955c11.309-32.818,26.998-69.13-3.471-79.097
				c-70.481-23.058-94.977,8.46-106.285,41.277c-0.585,1.701-1.056,3.409-1.5,5.118c-16.499-2.228-33.016-3.06-49.434-2.506
				c-0.135-1.718-0.295-3.438-0.569-5.161c-5.36-33.641,2.115-53.289-30.397-49.417c-70.895,8.443-90.489,42.445-85.129,76.086
				c0.281,1.758,0.667,3.461,1.08,5.149c-15.561,6.868-30.655,14.983-45.153,24.276c-0.944-1.403-1.916-2.791-2.992-4.123
				c-20.592-25.453-57.511-27.281-82.458-4.081c-24.948,23.2-28.476,62.639-7.882,88.093c1.054,1.304,2.177,2.503,3.315,3.685
				c-10.539,13.938-20.155,28.82-28.767,44.547c-1.488-0.668-2.994-1.315-4.563-1.855c-30.308-10.444-64.045,7.695-75.354,40.512
				c-11.308,32.816,4.094,67.887,34.403,78.331c1.571,0.54,3.155,0.959,4.739,1.348c-2.904,17.694-4.496,35.34-4.782,52.813
				c-1.621,0.229-3.247,0.482-4.88,0.859c-31.903,7.367-53.417,40.608-48.057,74.251c5.361,33.643,35.569,54.944,67.471,47.581
				c1.667-0.385,3.288-0.881,4.897-1.404c5.695,16.251,12.586,31.94,20.613,46.938c-1.364,1.076-2.718,2.179-4.022,3.392
				c-24.947,23.198-28.476,62.639-7.884,88.092c20.594,25.454,77.796,30.664,102.742,7.466c1.278-1.189-17.82-5.829-16.656-7.1
				c12.591,10.551,26.115,20.071,40.485,28.477c-0.703,1.62-1.385,3.257-1.97,4.956c-11.309,32.818,4.095,67.888,34.403,78.331
				c30.309,10.444,64.045-7.695,75.353-40.512c0.585-1.699,1.056-3.409,1.5-5.118c16.499,2.23,33.016,3.061,49.434,2.507
				c0.135,1.718,0.295,3.436,0.569,5.161c5.36,33.641,35.568,54.944,67.47,47.579c31.901-7.365,53.416-40.608,48.056-74.249
				c-0.281-1.758-0.668-3.462-1.08-5.149c15.563-6.869,30.655-14.984,45.152-24.277c0.944,1.403,1.916,2.793,2.993,4.123
				c20.594,25.453,57.51,27.28,82.458,4.08c24.948-23.2,28.476-62.639,7.883-88.093c-1.055-1.302-2.179-2.503-3.316-3.683
				c10.539-13.939,20.155-28.82,28.767-44.548C1638.568,1626.968,1640.073,1627.615,1641.643,1628.156z M1289.327,1681.642
				c-110.043-37.919-165.966-165.248-124.91-284.402c41.058-119.154,163.548-185.007,273.59-147.089
				c110.043,37.917,165.966,165.248,124.91,284.402C1521.858,1653.705,1399.368,1719.559,1289.327,1681.642z"/>
			
				<linearGradient id="SVGID_00000015341604698081230650000010388835460200791680_" gradientUnits="userSpaceOnUse" x1="4370.3125" y1="2548.9514" x2="991.9702" y2="1146.0786" gradientTransform="matrix(0.9905 -0.1375 0.1375 0.9905 -35.5196 392.1444)">
				<stop  offset="0.1" style="stop-color:#311944"/>
				<stop  offset="0.267" style="stop-color:#371B47"/>
				<stop  offset="0.4803" style="stop-color:#462150"/>
				<stop  offset="0.7186" style="stop-color:#612A5F"/>
				<stop  offset="0.9736" style="stop-color:#853774"/>
				<stop  offset="1" style="stop-color:#893976"/>
			</linearGradient>
			<path style="fill:url(#SVGID_00000015341604698081230650000010388835460200791680_);" d="M1687.517,1454.291
				c31.902-7.365,53.416-40.608,48.056-74.251c-5.36-33.643-35.568-54.946-67.47-47.581c-1.667,0.385-3.288,0.882-4.895,1.404
				c-5.697-16.251-12.587-31.94-20.614-46.937c1.364-1.074,2.718-2.179,4.022-3.392c24.947-23.197,52.641-74.728,29.546-97.933
				c-43.834-44.043-79.174-17.438-104.121,5.761c-1.279,1.189-2.462,2.444-3.628,3.714c-12.591-10.551-26.115-20.07-40.485-28.477
				c0.703-1.62,1.385-3.256,1.971-4.955c6.155-17.861,4.347-36.36-3.419-51.222c-20.168,50.688-39.951,101.521-59.226,152.547
				c90.352,48.705,132.904,163.504,95.662,271.583c-31.558,91.587-111.234,151.617-196.38,157.304
				c-2.406,10.275-4.738,20.594-7.424,30.814c-7.29,27.73-16.14,55.128-25.011,82.494c8.024,0.389,16.037,0.458,24.027,0.189
				c0.134,1.72,0.293,3.438,0.568,5.162c5.36,33.643,29.824,59.462,87.934,48.228c32.146-6.214,32.953-41.255,27.592-74.898
				c-0.281-1.757-0.667-3.461-1.08-5.149c15.563-6.869,30.655-14.983,45.153-24.276c0.944,1.403,1.917,2.793,2.993,4.121
				c20.594,25.455,80.293,29.194,105.24,5.994c24.948-23.2,5.694-64.551-14.899-90.005c-1.055-1.303-2.179-2.503-3.316-3.685
				c10.539-13.938,20.156-28.82,28.767-44.547c1.489,0.671,2.993,1.317,4.564,1.856c30.308,10.446,64.045-7.693,75.354-40.512
				c11.308-32.816-4.095-67.887-34.403-78.329c-1.571-0.542-3.154-0.959-4.739-1.35c2.905-17.693,4.496-35.34,4.782-52.81
				C1684.258,1454.922,1685.883,1454.668,1687.517,1454.291z"/>
			
				<linearGradient id="SVGID_00000091003253146319531460000003804983027467744645_" gradientUnits="userSpaceOnUse" x1="-41.0383" y1="439.1364" x2="2409.6082" y2="1973.6539" gradientTransform="matrix(0.9905 -0.1375 0.1375 0.9905 -35.5196 392.1444)">
				<stop  offset="0" style="stop-color:#AA80F9"/>
				<stop  offset="0.9964" style="stop-color:#6165D7"/>
			</linearGradient>
			<path style="fill:url(#SVGID_00000091003253146319531460000003804983027467744645_);" d="M1718.459,1453.51
				c31.897-7.355,53.397-40.589,48.032-74.224c-5.328-33.641-35.54-54.975-67.467-47.579c-1.667,0.377-3.283,0.858-4.889,1.41
				c-5.695-16.254-12.596-31.974-20.602-46.956c1.352-1.065,2.698-2.167,4.03-3.376c24.939-23.213,28.461-62.656,7.882-88.107
				c-20.614-25.448-57.516-27.273-82.462-4.094c-1.296,1.203-2.474,2.464-3.651,3.725c-12.583-10.543-26.087-20.078-40.457-28.471
				c0.688-1.631,1.376-3.264,1.947-4.952c11.313-32.842-4.089-67.901-34.394-78.324c-30.309-10.458-64.036,7.685-75.354,40.492
				c-0.571,1.689-1.063,3.403-1.486,5.108c-16.51-2.206-33.049-3.056-49.431-2.5c-0.162-1.696-0.33-3.429-0.569-5.151
				c-5.365-33.636-35.572-54.934-67.469-47.58c-31.932,7.36-53.432,40.594-48.067,74.229c0.284,1.789,0.667,3.493,1.082,5.153
				c-15.577,6.881-30.652,15.01-45.161,24.303c-0.928-1.407-1.926-2.805-2.987-4.121c-12.936-15.98-32.295-22.655-51.044-19.649
				c-11.171,1.734-22.125,6.876-31.417,15.555c-24.939,23.213-28.464,62.619-7.882,88.107c1.057,1.28,2.173,2.479,3.326,3.672
				c-10.538,13.935-20.176,28.807-28.779,44.559c-1.483-0.672-3.002-1.339-4.572-1.853c-30.311-10.457-64.038,7.686-75.356,40.492
				c-11.318,32.807,4.089,67.902,34.394,78.324c1.575,0.549,3.171,0.986,4.759,1.35c-2.919,17.705-4.495,35.335-4.772,52.82
				c-1.651,0.229-3.261,0.489-4.892,0.861c-31.897,7.355-53.432,40.594-48.062,74.265c5.365,33.636,35.572,54.935,67.469,47.58
				c1.661-0.414,3.276-0.893,4.887-1.41c5.695,16.253,12.591,31.938,20.634,46.914c-1.384,1.107-2.729,2.208-4.025,3.412
				c-24.945,23.178-28.466,62.62-7.887,88.072c20.582,25.488,57.521,27.308,82.46,4.095c1.26-1.199,2.479-2.428,3.616-3.72
				c12.588,10.578,26.124,20.073,40.497,28.502c-0.693,1.595-1.381,3.227-1.982,4.956c-11.283,32.802,4.12,67.86,34.429,78.32
				c30.306,10.422,64.036-7.686,75.351-40.529c0.571-1.688,1.027-3.397,1.486-5.107c16.513,2.242,33.012,3.06,49.431,2.5
				c0.131,1.737,0.294,3.433,0.569,5.151c5.37,33.672,35.577,54.97,67.474,47.615c31.892-7.391,53.428-40.629,48.062-74.265
				c-0.281-1.753-0.664-3.456-1.082-5.153c15.54-6.876,30.657-14.973,45.166-24.266c0.926,1.407,1.883,2.774,2.985,4.121
				c20.579,25.452,57.518,27.272,82.456,4.058c19.536-18.147,25.943-46.286,17.92-69.823c-2.23-6.567-5.571-12.724-10.033-18.248
				c-1.06-1.316-2.178-2.514-3.326-3.671c10.533-13.972,20.136-28.838,28.779-44.559c1.484,0.672,2.962,1.308,4.537,1.857
				c30.306,10.422,64.073-7.69,75.351-40.528c11.318-32.807-4.084-67.865-34.393-78.324c-1.576-0.549-3.133-0.954-4.724-1.356
				c2.882-17.7,4.493-35.334,4.772-52.819C1715.183,1454.148,1716.833,1453.918,1718.459,1453.51z M1593.84,1533.797
				c-27.841,80.821-93.175,137.112-166.626,153.126c-34.858,7.62-71.527,6.165-106.944-6.035
				c-110.056-37.936-165.991-165.242-124.93-284.4c18.351-53.279,52.964-95.867,95.493-123.315
				c52.557-33.998,117.263-44.775,178.113-23.782C1578.996,1287.291,1634.901,1414.638,1593.84,1533.797z"/>
			<path style="opacity:0.3;fill:#FFFFFF;" d="M1634.686,1761.843c-24.939,23.213-61.878,21.393-82.456-4.058
				c-1.102-1.347-2.059-2.714-2.985-4.121c-14.51,9.293-29.626,17.39-45.166,24.266c0.418,1.698,0.801,3.4,1.082,5.153
				c5.365,33.636-16.171,66.874-48.062,74.265c-31.897,7.355-62.104-13.943-67.474-47.615c-0.274-1.718-0.438-3.414-0.569-5.151
				c-16.419,0.56-32.918-0.257-49.431-2.5c-0.459,1.709-0.915,3.418-1.486,5.107c-11.314,32.843-45.045,50.951-75.351,40.529
				c-30.309-10.459-45.712-45.517-34.429-78.32c0.601-1.729,1.289-3.361,1.982-4.956c-14.374-8.429-27.91-17.924-40.497-28.502
				c-1.137,1.292-2.356,2.521-3.616,3.72c-24.939,23.213-61.878,21.393-82.46-4.095c-20.579-25.452-17.058-64.893,7.887-88.072
				c1.296-1.204,2.641-2.305,4.025-3.412c-8.043-14.976-14.939-30.661-20.634-46.914c-1.611,0.516-3.226,0.996-4.887,1.41
				c-31.897,7.355-62.104-13.943-67.469-47.58c-5.37-33.672,16.166-66.91,48.062-74.265c1.631-0.373,3.241-0.632,4.892-0.861
				c0.278-17.485,1.853-35.115,4.772-52.82c-1.588-0.364-3.185-0.801-4.759-1.35c-30.306-10.422-45.712-45.517-34.394-78.324
				c11.318-32.806,45.045-50.949,75.356-40.492c1.57,0.514,3.089,1.181,4.572,1.853c8.603-15.752,18.241-30.623,28.779-44.559
				c-1.153-1.193-2.27-2.391-3.326-3.672c-20.582-25.488-17.056-64.894,7.882-88.107c9.293-8.679,20.246-13.821,31.417-15.555
				c43.329,29.937,85.327,70.044,104.891,120.326c-42.529,27.448-77.142,70.036-95.493,123.315
				c-41.061,119.159,14.874,246.465,124.93,284.4c35.417,12.2,72.086,13.655,106.944,6.035
				c54.074,30.932,127.66,38.271,225.391,5.096C1660.628,1715.556,1654.222,1743.695,1634.686,1761.843z"/>
		</g>
		<g>
			<g>
				
					<linearGradient id="SVGID_00000070808803283046203140000008208332707954769558_" gradientUnits="userSpaceOnUse" x1="4367.1807" y1="2523.3638" x2="832.9736" y2="1055.7673" gradientTransform="matrix(0.9835 -0.181 0.181 0.9835 1146.1469 394.9307)">
					<stop  offset="0.1" style="stop-color:#311944"/>
					<stop  offset="0.267" style="stop-color:#371B47"/>
					<stop  offset="0.4803" style="stop-color:#462150"/>
					<stop  offset="0.7186" style="stop-color:#612A5F"/>
					<stop  offset="0.9736" style="stop-color:#853774"/>
					<stop  offset="1" style="stop-color:#893976"/>
				</linearGradient>
				<path style="fill:url(#SVGID_00000070808803283046203140000008208332707954769558_);" d="M3067.553,1642.642
					c54.241,16.058,112.308-18.536,129.695-77.267c17.389-58.731-12.486-119.361-66.727-135.42c-2.811-0.832-5.636-1.446-8.46-2.012
					c3.749-31.417,5.186-62.65,4.332-93.473c2.842-0.531,5.688-1.103,8.538-1.896c55.668-15.459,91.018-75.731,78.956-134.624
					c-12.061-58.895-66.966-94.105-122.635-78.647c-2.91,0.81-5.729,1.811-8.523,2.856c-11.302-28.206-24.668-55.33-39.982-81.145
					c2.323-2.003,4.624-4.053,6.828-6.292c42.178-42.832,45.339-112.637,7.061-155.91c-38.279-43.273-103.505-43.629-145.684-0.797
					c-2.161,2.196-4.15,4.503-6.106,6.833c-23.016-17.623-47.596-33.357-73.58-47.063c1.114-2.909,2.188-5.847,3.089-8.889
					c17.389-58.733,42.229-123.963-12.257-139.17c-126.042-35.18-166.778,22.285-184.167,81.016
					c-0.901,3.041-1.598,6.091-2.248,9.138c-29.259-2.648-58.442-2.833-87.343-0.581c-0.372-3.018-0.784-6.036-1.402-9.055
					c-12.061-58.89-0.408-94.106-57.421-84.758c-124.327,20.386-156.232,81.847-144.171,140.739c0.63,3.078,1.445,6.05,2.303,8.995
					c-26.9,13.316-52.879,28.793-77.714,46.301c-1.775-2.399-3.595-4.774-5.596-7.037c-38.278-43.273-103.505-43.629-145.684-0.793
					c-42.179,42.835-45.34,112.636-7.06,155.908c1.96,2.218,4.035,4.247,6.129,6.239c-17.497,25.391-33.294,52.371-47.255,80.766
					c-2.676-1.064-5.381-2.087-8.19-2.919c-54.241-16.058-112.308,18.534-129.697,77.267
					c-17.387,58.731,12.487,119.361,66.728,135.419c2.809,0.832,5.635,1.446,8.459,2.012c-3.747,31.416-5.186,62.65-4.33,93.473
					c-2.843,0.531-5.687,1.103-8.538,1.893c-55.668,15.462-91.017,75.734-78.957,134.627
					c12.062,58.894,66.969,94.101,122.636,78.643c2.909-0.807,5.73-1.807,8.524-2.854c11.301,28.208,24.667,55.332,39.981,81.146
					c-2.323,2.003-4.623,4.052-6.828,6.292c-42.178,42.832-45.34,112.636-7.06,155.909c38.28,43.272,139.524,48.02,181.702,5.188
					c2.162-2.197-31.868-8.894-29.912-11.225c23.015,17.623,47.596,33.357,73.581,47.063c-1.114,2.909-2.189,5.848-3.089,8.889
					c-17.389,58.731,12.486,119.361,66.727,135.421c54.24,16.058,112.308-18.536,129.696-77.267c0.9-3.043,1.598-6.093,2.248-9.139
					c29.258,2.65,58.442,2.834,87.341,0.581c0.373,3.02,0.786,6.037,1.403,9.056c12.063,58.89,66.969,94.101,122.636,78.643
					c55.668-15.459,91.019-75.734,78.956-134.624c-0.63-3.078-1.444-6.051-2.302-8.995c26.9-13.316,52.878-28.792,77.714-46.301
					c1.774,2.399,3.596,4.773,5.596,7.034c38.279,43.273,103.504,43.632,145.684,0.796c42.179-42.835,45.34-112.636,7.061-155.912
					c-1.96-2.214-4.035-4.243-6.13-6.235c17.496-25.391,33.295-52.371,47.254-80.766
					C3062.04,1640.786,3064.742,1641.81,3067.553,1642.642z M2450.604,1764.272c-196.936-58.306-305.405-278.436-242.271-491.679
					c63.133-213.242,273.96-338.841,470.896-280.536c196.938,58.307,305.406,278.437,242.272,491.68
					C2858.367,1696.979,2647.541,1822.578,2450.604,1764.272z"/>
				
					<linearGradient id="SVGID_00000155108932741419034270000006002918128048855991_" gradientUnits="userSpaceOnUse" x1="4368.8843" y1="2519.0715" x2="834.7673" y2="1051.5125" gradientTransform="matrix(0.9835 -0.181 0.181 0.9835 1146.1469 394.9307)">
					<stop  offset="0.1" style="stop-color:#311944"/>
					<stop  offset="0.267" style="stop-color:#371B47"/>
					<stop  offset="0.4803" style="stop-color:#462150"/>
					<stop  offset="0.7186" style="stop-color:#612A5F"/>
					<stop  offset="0.9736" style="stop-color:#853774"/>
					<stop  offset="1" style="stop-color:#893976"/>
				</linearGradient>
				<path style="fill:url(#SVGID_00000155108932741419034270000006002918128048855991_);" d="M3134.932,1332.575
					c55.668-15.46,91.017-75.732,78.957-134.625c-12.062-58.893-66.968-94.104-122.636-78.644c-2.91,0.807-5.729,1.811-8.524,2.855
					c-11.301-28.208-24.668-55.33-39.982-81.145c2.323-2.001,4.624-4.054,6.828-6.293c42.178-42.832,87.002-135.823,44.486-174.94
					c-80.694-74.242-140.931-24.596-183.109,18.235c-2.161,2.196-4.15,4.501-6.106,6.831
					c-23.016-17.622-47.595-33.354-73.582-47.061c1.115-2.909,2.19-5.846,3.091-8.888c9.463-31.964,4.843-64.435-10.001-90.033
					c-31.623,90.921-62.552,182.071-92.573,273.521c163.061,78.852,246.984,277.927,189.72,471.35
					c-48.526,163.907-184.328,275.917-333.992,292.551c-3.446,18.301-6.753,36.675-10.697,54.897
					c-10.698,49.452-24.174,98.439-37.689,147.371c14.174,0.062,28.305-0.435,42.37-1.531c0.371,3.021,0.785,6.039,1.403,9.056
					c12.062,58.893,57.191,102.511,158.761,78.197c56.188-13.45,54.892-75.285,42.829-134.178c-0.63-3.076-1.444-6.051-2.302-8.994
					c26.9-13.317,52.878-28.794,77.713-46.3c1.775,2.399,3.597,4.773,5.597,7.034c38.28,43.274,143.815,45.233,185.994,2.399
					c42.18-42.835,5.03-114.239-33.249-157.514c-1.961-2.216-4.036-4.246-6.131-6.239c17.498-25.389,33.295-52.371,47.254-80.763
					c2.678,1.064,5.381,2.088,8.191,2.917c54.24,16.061,112.308-18.536,129.697-77.267c17.388-58.73-12.487-119.362-66.728-135.419
					c-2.811-0.832-5.636-1.446-8.46-2.01c3.749-31.417,5.186-62.651,4.332-93.472
					C3129.235,1333.939,3132.08,1333.366,3134.932,1332.575z"/>
				
					<linearGradient id="SVGID_00000137104520939288916520000007324858184092251271_" gradientUnits="userSpaceOnUse" x1="821.9782" y1="948.403" x2="3385.7864" y2="2553.7786" gradientTransform="matrix(0.9835 -0.181 0.181 0.9835 1146.1469 394.9307)">
					<stop  offset="0" style="stop-color:#AA80F9"/>
					<stop  offset="0.9964" style="stop-color:#6165D7"/>
				</linearGradient>
				<path style="fill:url(#SVGID_00000137104520939288916520000007324858184092251271_);" d="M3184.987,1426.208
					c-2.818-0.838-5.614-1.451-8.451-2.029c3.756-31.392,5.185-62.652,4.338-93.441c2.843-0.544,5.688-1.123,8.511-1.929
					c55.69-15.426,91.023-75.719,78.965-134.604c-12.058-58.885-66.973-94.129-122.626-78.663c-2.902,0.838-5.739,1.83-8.542,2.862
					c-11.276-28.213-24.651-55.306-39.946-81.154c2.313-2.002,4.59-4.044,6.806-6.276c42.186-42.828,45.347-112.653,7.045-155.897
					c-38.265-43.278-103.47-43.639-145.656-0.81c-2.177,2.198-4.175,4.522-6.101,6.85c-23.026-17.658-47.612-33.372-73.612-47.095
					c1.144-2.908,2.214-5.822,3.104-8.861c17.39-58.744-12.485-119.361-66.727-135.418c-54.242-16.056-112.32,18.525-129.707,77.232
					c-0.895,3.075-1.601,6.127-2.229,9.146c-29.267-2.631-58.448-2.827-87.356-0.573c-0.381-3.018-0.763-6.035-1.406-9.035
					c-12.053-58.922-66.973-94.129-122.626-78.663c-55.653,15.467-91.021,75.721-78.967,134.642c0.636,3.074,1.47,6.05,2.306,8.989
					c-1.319,0.652-2.637,1.306-3.961,2.032c-25.482,12.818-50.135,27.602-73.726,44.258c-1.808-2.411-3.618-4.785-5.625-7.022
					c-38.263-43.278-103.507-43.642-145.655-0.811c-42.186,42.828-45.347,112.653-7.084,155.932
					c1.974,2.197,4.033,4.215,6.131,6.235c-17.492,25.393-33.303,52.365-47.235,80.744c-2.691-1.054-5.383-2.071-8.201-2.909
					c-54.242-16.056-112.32,18.525-129.71,77.269c-17.39,58.745,12.485,119.361,66.727,135.418c2.818,0.839,5.652,1.455,8.453,1.993
					c-3.723,31.431-5.185,62.652-4.304,93.48c-2.843,0.543-5.688,1.123-8.547,1.889c-55.653,15.466-91.022,75.757-78.966,134.642
					c12.056,58.885,66.976,94.092,122.629,78.625c2.936-0.798,5.736-1.793,8.541-2.823c11.315,28.179,24.649,55.306,39.985,81.12
					c-2.313,2.002-4.631,4.078-6.847,6.311c-42.15,42.831-45.344,112.616-7.043,155.897c38.263,43.277,103.505,43.641,145.691,0.813
					c2.139-2.201,4.139-4.524,6.101-6.85c22.992,17.618,47.576,33.37,73.58,47.055c-1.108,2.911-2.18,5.861-3.109,8.897
					c-17.39,58.745,12.483,119.361,66.727,135.417c54.242,16.056,112.32-18.524,129.71-77.269c0.891-3.039,1.598-6.09,2.262-9.108
					c29.23,2.63,58.411,2.824,87.32,0.571c0.381,3.018,0.799,6.039,1.406,9.036c12.056,58.884,66.973,94.129,122.626,78.662
					c51.838-14.396,86.027-67.631,80.78-122.437c-0.379-4.065-0.983-8.145-1.811-12.205c-0.64-3.074-1.434-6.046-2.306-8.988
					c26.902-13.314,52.875-28.789,77.723-46.287c1.773,2.371,3.583,4.744,5.587,7.019c38.301,43.281,103.505,43.641,145.691,0.813
					c42.188-42.828,45.349-112.652,7.048-155.933c-1.935-2.196-4.033-4.216-6.131-6.236c17.494-25.392,33.305-52.364,47.274-80.74
					c2.653,1.051,5.383,2.07,8.201,2.908c54.206,16.054,112.283-18.527,129.672-77.271
					C3269.106,1502.882,3239.231,1442.265,3184.987,1426.208z M2975.965,1479.97c-55.819,188.494-226.962,308.496-401.954,293.572
					c-22.998-1.956-46.053-6.233-68.929-13.002c-196.948-58.335-305.422-278.439-242.286-491.713
					c36.41-122.979,121.929-216.776,225.589-262.989c76.088-33.956,161.952-42.237,245.327-17.54
					C2930.625,1046.629,3039.099,1266.733,2975.965,1479.97z"/>
				<path style="opacity:0.3;fill:#FFFFFF;" d="M2759.987,2060.983c-55.653,15.467-110.57-19.778-122.626-78.662
					c-0.607-2.997-1.025-6.018-1.406-9.036c-28.908,2.253-58.09,2.059-87.32-0.571c-0.665,3.018-1.372,6.069-2.262,9.108
					c-17.39,58.745-75.468,93.325-129.71,77.269c-54.244-16.057-84.118-76.673-66.727-135.417c0.929-3.036,2.001-5.986,3.109-8.897
					c-26.004-13.685-50.588-29.437-73.58-47.055c-1.962,2.326-3.962,4.648-6.101,6.85c-42.186,42.828-107.428,42.464-145.691-0.813
					c-38.301-43.281-35.107-113.066,7.043-155.897c2.216-2.232,4.534-4.309,6.847-6.311c-15.336-25.813-28.671-52.941-39.985-81.12
					c-2.805,1.031-5.605,2.026-8.541,2.823c-55.653,15.467-110.573-19.74-122.629-78.625
					c-12.056-58.885,23.313-119.175,78.966-134.642c2.859-0.766,5.704-1.346,8.547-1.889c-0.881-30.828,0.582-62.049,4.304-93.48
					c-2.801-0.538-5.635-1.153-8.453-1.993c-54.242-16.057-84.117-76.673-66.727-135.418c17.39-58.744,75.468-93.325,129.71-77.269
					c2.818,0.838,5.51,1.855,8.201,2.909c13.932-28.379,29.744-55.351,47.235-80.744c-2.098-2.02-4.157-4.038-6.131-6.235
					c-38.263-43.278-35.102-113.103,7.084-155.932c42.148-42.831,107.392-42.467,145.655,0.811c2.007,2.237,3.817,4.611,5.625,7.022
					c23.591-16.656,48.243-31.439,73.726-44.258c40.467,51.1,73.864,109.018,90.236,172.325
					c-103.66,46.213-189.179,140.01-225.589,262.989c-63.136,213.274,45.338,433.378,242.286,491.713
					c22.876,6.769,45.931,11.046,68.929,13.002c62.974,84.272,151.728,145.354,266.755,165.004
					C2846.014,1993.352,2811.825,2046.587,2759.987,2060.983z"/>
			</g>
			<g>
				
					<linearGradient id="SVGID_00000143589768481588313460000005814725303900664744_" gradientUnits="userSpaceOnUse" x1="3075.834" y1="1809.4333" x2="3113.5669" y2="2077.6079" gradientTransform="matrix(0.9977 0.0677 -0.0677 0.9977 140.8456 -248.989)">
					<stop  offset="0" style="stop-color:#FFC444"/>
					<stop  offset="0.9964" style="stop-color:#F36F56"/>
				</linearGradient>
				<path style="fill:url(#SVGID_00000143589768481588313460000005814725303900664744_);" d="M3064.332,1787.89l3.567-52.552
					c0,0-6.792-11.732-8.874-39.775c-2.083-28.043,4.378-16.542,7.131-4.747c0.768,3.288,2.626,6.16,4.907,8.592
					c5.733,6.112,13.567-0.77,15.312-8.967l13.665-28.266c0,0,14.924,19.647-3.181,70.268c-5.667,15.847-3.742,55.136-3.742,55.136
					L3064.332,1787.89z"/>
				
					<linearGradient id="SVGID_00000178883607086041006270000016159060904596654471_" gradientUnits="userSpaceOnUse" x1="2128.0908" y1="1942.2659" x2="2166.6189" y2="2216.0918" gradientTransform="matrix(0.9977 0.0677 -0.0677 0.9977 140.8456 -248.989)">
					<stop  offset="0" style="stop-color:#FFC444"/>
					<stop  offset="0.9964" style="stop-color:#F36F56"/>
				</linearGradient>
				<path style="fill:url(#SVGID_00000178883607086041006270000016159060904596654471_);" d="M2141.187,1767.249l-9.766-52.066
					c0,0,14.062-18.768,9.313-39.226c-4.75-20.458-1.561-13.07-7.363-0.5c-5.802,12.571-14.048-9.941-20.297-30.364
					c-6.248-20.422-12.222,9.915-11.601,28.198c0.622,18.284,0.572,29.136,10.517,43.122s4.573,60.958,4.573,60.958
					L2141.187,1767.249z"/>
				<path style="fill:#26264F;" d="M2796.889,3226.849c1.188-11.246,28.202-7.135,45.89-4.22
					c17.688,2.915,25.043,10.593,27.372,17.456c2.329,6.862-0.878,23.194-16.856,15.173
					C2840.179,3248.674,2795.838,3236.79,2796.889,3226.849z"/>
				
					<linearGradient id="SVGID_00000174598567289612564200000017064110684286226316_" gradientUnits="userSpaceOnUse" x1="2902.9167" y1="3164.0288" x2="2961.1401" y2="3337.3132" gradientTransform="matrix(0.9977 0.0677 -0.0677 0.9977 140.8456 -248.989)">
					<stop  offset="0" style="stop-color:#FFC444"/>
					<stop  offset="0.9964" style="stop-color:#F36F56"/>
				</linearGradient>
				<path style="fill:url(#SVGID_00000174598567289612564200000017064110684286226316_);" d="M2832.585,3185.394l9.699,44.536
					c0,0,12.081,9.564,16.538,5.516l-1.301-50.658L2832.585,3185.394z"/>
				
					<linearGradient id="SVGID_00000103241121645530126970000011675330927522736799_" gradientUnits="userSpaceOnUse" x1="2828.3464" y1="3189.7146" x2="2886.1396" y2="3361.7192" gradientTransform="matrix(0.9977 0.0677 -0.0677 0.9977 140.8456 -248.989)">
					<stop  offset="0" style="stop-color:#FFC444"/>
					<stop  offset="0.9964" style="stop-color:#F36F56"/>
				</linearGradient>
				<polygon style="fill:url(#SVGID_00000103241121645530126970000011675330927522736799_);" points="2744.872,3153.478 
					2785.567,3174.617 2777.087,3195.36 2735.831,3181.585 				"/>
				<path style="fill:#26264F;" d="M2736.894,3235.671c0,0,27.454,9.125,40.935-6.548c8.669-10.078,16.508-27.662,20.999-38.933
					c2.439-6.12-0.27-13.055-6.21-15.904c-8.626-4.136-20.424-8.768-25.76-6.225c-8.927,4.253-3.048,36.946-7.379,45.069
					C2755.149,3221.253,2736.513,3225.387,2736.894,3235.671z"/>
				
					<linearGradient id="SVGID_00000034769048138473076930000010507022300201359009_" gradientUnits="userSpaceOnUse" x1="3063.5879" y1="3075.1753" x2="2790.2214" y2="2766.9504" gradientTransform="matrix(0.9977 0.0677 -0.0677 0.9977 140.8456 -248.989)">
					<stop  offset="0" style="stop-color:#444B8C"/>
					<stop  offset="0.9964" style="stop-color:#3E4177"/>
				</linearGradient>
				<path style="fill:url(#SVGID_00000034769048138473076930000010507022300201359009_);" d="M2721.687,2495.175
					c-0.557,101.744,5.429,220.065,24.475,350.593c19.854,136.06,49.54,255.512,80.668,355.786c3.525,1.99,9.843,4.953,18.275,5.771
					c9.869,0.956,17.631-1.518,21.538-3.068c10.405-51.759,16.93-95.603,21.115-128.209c11.056-86.111,16.414-130.233,8.133-182.48
					c-7.771-49.027-16.907-45.863-24.817-100.004c-7.034-48.148-4.778-84.662-1.169-138.107
					c2.478-36.698,7.522-86.146,18.603-144.478C2832.9,2505.711,2777.294,2500.442,2721.687,2495.175z"/>
				
					<linearGradient id="SVGID_00000024715253935721157690000008712693783931982996_" gradientUnits="userSpaceOnUse" x1="3063.5879" y1="3075.1753" x2="2790.2212" y2="2766.9504" gradientTransform="matrix(0.9977 0.0677 -0.0677 0.9977 140.8456 -248.989)">
					<stop  offset="0" style="stop-color:#444B8C"/>
					<stop  offset="0.9964" style="stop-color:#3E4177"/>
				</linearGradient>
				<path style="opacity:0.3;fill:url(#SVGID_00000024715253935721157690000008712693783931982996_);" d="M2834.744,3166.232
					c-8.677-36.515,14.324-51.362,14.853-96.914c0.648-55.654-33.383-59.628-39.943-122.699
					c-5.271-50.684,16.135-53.579,14.692-114.854c-1.533-65.122-26.137-79.975-18.164-118.463
					c4.434-21.4,19.031-50.007,65.372-79.097c2.884-33.743,7.873-75.434,16.953-123.229c-55.606-5.266-111.212-10.535-166.82-15.802
					c-0.557,101.744,5.429,220.065,24.475,350.593c19.854,136.06,49.54,255.512,80.668,355.786c3.525,1.99,9.843,4.953,18.275,5.771
					c4.474,0.434,8.435,0.115,11.88-0.457C2847.144,3195.94,2838.617,3182.528,2834.744,3166.232z"/>
				
					<linearGradient id="SVGID_00000008853462818009976990000007005702777464162193_" gradientUnits="userSpaceOnUse" x1="2719.8225" y1="2899.4832" x2="2316.199" y2="2824.2627" gradientTransform="matrix(0.9977 0.0677 -0.0677 0.9977 140.8456 -248.989)">
					<stop  offset="0" style="stop-color:#444B8C"/>
					<stop  offset="0.9964" style="stop-color:#3E4177"/>
				</linearGradient>
				<path style="fill:url(#SVGID_00000008853462818009976990000007005702777464162193_);" d="M2586.986,2468.103
					c-3.685,24.278-10.173,60.974-21.733,104.789c-26.065,98.798-50.362,129.36-60.639,194.418
					c-11.982,75.863,4.78,137.353,11.156,160.742c43.527,159.663,187.192,242.355,225.306,262.806
					c5.418-14.097,10.837-28.195,16.253-42.292c-8.993-13.901-22.201-36.191-34.103-65.34c-20.32-49.766-19.979-78.25-32.85-126.773
					c-23.219-87.541-46.102-76.921-48.445-120.849c-3.712-69.618,53.897-93.714,113.113-222.314
					c16.969-36.85,27.549-68.123,33.514-87.372C2721.368,2506.646,2654.177,2487.374,2586.986,2468.103z"/>
				
					<linearGradient id="SVGID_00000008858282195524388520000008628892449130172092_" gradientUnits="userSpaceOnUse" x1="2526.5911" y1="1650.5703" x2="2777.9456" y2="2573.429" gradientTransform="matrix(0.9977 0.0677 -0.0677 0.9977 140.8456 -248.989)">
					<stop  offset="0" style="stop-color:#FF9085"/>
					<stop  offset="1" style="stop-color:#FB6FBB"/>
				</linearGradient>
				<path style="fill:url(#SVGID_00000008858282195524388520000008628892449130172092_);" d="M3056.651,1766.259
					c14.342-1.325,28.684-2.651,43.024-3.976c16.112,26.261,62.056,108.932,44.776,214.053
					c-4.094,24.914-20.094,107.41-94.919,168.829c-53.576,43.977-110.574,55.072-136.58,58.466
					c-8.409,123.223-11.35,201.087-10.272,247.882c0.13,5.641,1.304,52.994-9.182,113.248c-3.195,18.361-4.851,27.643-7.728,32.576
					c-39.914,68.464-237.365-1.342-290.134-28.525c-13.72-7.068-27.501-16.54-32.623-31.999c-6.579-19.863,2.175-36.87,6.287-51.982
					c10.098-37.11-10.339-67.026-50.233-143.056c-16.869-32.15-41.263-80.352-69.343-142.684
					c-37.966,8.335-127.023,21.842-210.132-24.962c-122.12-68.774-182.821-240.41-133.842-418.625
					c13.062-2.791,26.124-5.583,39.185-8.374c6.101,35.643,19.246,83.971,49.507,133.868c18.361,30.273,33.65,55.484,62.098,70.93
					c44.667,24.252,87.066,5.584,147.92-5.131c95.89-16.881,174.156-2.841,269.231,14.217
					c103.869,18.636,131.092,42.079,208.59,32.82c34.469-4.117,77.657-9.829,114.835-41.29
					C3070.253,1890.656,3058.493,1781.288,3056.651,1766.259z"/>
				
					<linearGradient id="SVGID_00000147214679393176142800000005790283099236970381_" gradientUnits="userSpaceOnUse" x1="2641.4846" y1="2006.5955" x2="2686.8938" y2="2140.5288" gradientTransform="matrix(0.9977 0.0677 -0.0677 0.9977 140.8456 -248.989)">
					<stop  offset="0" style="stop-color:#FFC444"/>
					<stop  offset="0.9964" style="stop-color:#F36F56"/>
				</linearGradient>
				<path style="fill:url(#SVGID_00000147214679393176142800000005790283099236970381_);" d="M2656.308,1877.419
					c0,0-7.98,24.694,0.095,36.552c8.075,11.857,34.663,57.009,44.129,59.769c5.393,1.572,18.969,4.579,29.653,6.876
					c5.625,1.208,6.299,9.109,0.878,11.036c-11.049,3.929-30.293,7.331-62.77,4.774c-46.942-3.696-83.515-24.135-99.36-34.514
					c-2.25-1.474-0.902-4.948,1.761-4.565l21.033,3.024c18.014,2.591,33.944-11.832,33.154-30.014l-0.516-11.841L2656.308,1877.419z
					"/>
				<g>
					<g>
						
							<linearGradient id="SVGID_00000081605461294519178370000002314279983324924079_" gradientUnits="userSpaceOnUse" x1="2699.0381" y1="3671.553" x2="2744.4465" y2="3805.4849" gradientTransform="matrix(0.9977 0.0677 -0.0677 0.9977 654.2445 -214.142)">
							<stop  offset="0" style="stop-color:#FFC444"/>
							<stop  offset="0.9964" style="stop-color:#F36F56"/>
						</linearGradient>
						<path style="fill:url(#SVGID_00000081605461294519178370000002314279983324924079_);" d="M2633.487,1926.673
							c-2.798-1.793-26.22-6.265-28.612-19.186c-3.25-17.539,13.668-37.47,15.827-40.716c9.041-13.586,11.202-15.358,15.123-17.499
							l5.422-2.703c0,0,0.31-0.094,0.632-0.177c3.404-0.875,14.67-0.198,16.902,0.494c7.131,2.212,12.189,32.537,6.184,74.219
							c0.157,1.623,0.302,3.258,0.436,4.906C2665.75,1930.296,2633.172,1928.152,2633.487,1926.673z"/>
						<path style="fill:#26264F;" d="M2616.904,1842.239c-1.371,5.052,11.494,16.169,16.99,20.965
							c0.669,0.584,2.584,2.527,4.233,5.559c0.24,0.442,0.441,0.951,0.602,1.6c2.101,8.434-11.772,16.88-9.594,20.767
							c1.579,2.823,10.737,0.071,11.579,2.459c0.794,2.247-6.954,6.052-6.063,8.74c0.671,2.028,5.353,0.651,7.932,3.902
							c1.284,1.614,0.76,2.759,1.853,7.448c0.619,2.649,1.555,5.576,2.334,7.226c3.795,8.024,16.242,11.958,18.962,9.131
							c0.759-0.788,0.238-1.554,1.191-4.341c0,0,0.884-2.586,3-5.472c3.022-4.13,9.647-6.678,16.462-10.706
							c12.623-7.458,16.504-14.438,17.693-16.809c0.134-0.266,0.252-0.511,0.356-0.736c0.203-0.401,0.38-0.806,0.536-1.213
							c3.112-8.142-6.466-23.303-6.466-23.303c-7.699-11.973-17.882-20.35-26.105-25.794c-15.435-4.14-28.2-4.616-37.089-4.24
							C2628.072,1837.731,2617.989,1838.24,2616.904,1842.239z"/>
						<path style="fill:#26264F;" d="M2609.1,1885.038c0,0,9.188,12.682,23.378-0.836l6.392,2.368c0,0-18.33,34.005-21.741,33.774
							c-3.411-0.232-13.217-3.177-13.217-3.177c-3.627-1.816-5.459-5.96-4.331-9.857
							C2601.635,1900.204,2606.447,1889.964,2609.1,1885.038z"/>
						
							<linearGradient id="SVGID_00000072992350076801619190000004034526138926984343_" gradientUnits="userSpaceOnUse" x1="3678.2642" y1="4482.3521" x2="3795.2239" y2="4670.8638" gradientTransform="matrix(0.9977 0.0677 -0.0677 0.9977 654.2445 -214.142)">
							<stop  offset="0" style="stop-color:#FFC444"/>
							<stop  offset="0.9964" style="stop-color:#F36F56"/>
						</linearGradient>
						<path style="fill:url(#SVGID_00000072992350076801619190000004034526138926984343_);" d="M2635.366,1888.593
							c3.576-4.082,8.792,0.529,8.313,6.187c-0.48,5.655-6.49,11.038-11.702,9.438
							C2626.761,1902.621,2630.555,1894.086,2635.366,1888.593z"/>
					</g>
				</g>
				
					<linearGradient id="SVGID_00000142887709750179895450000004928318234366158006_" gradientUnits="userSpaceOnUse" x1="2349.4338" y1="1698.8153" x2="2600.7905" y2="2621.6819" gradientTransform="matrix(0.9977 0.0677 -0.0677 0.9977 140.8456 -248.989)">
					<stop  offset="0" style="stop-color:#FF9085"/>
					<stop  offset="1" style="stop-color:#FB6FBB"/>
				</linearGradient>
				<path style="opacity:0.3;fill:url(#SVGID_00000142887709750179895450000004928318234366158006_);" d="M2833.627,2573.111
					c-69.811,19.399-146.889-21.125-163.481-70.401c-12.264-36.427,21.374-68.098,1.684-106.082
					c-18.961-36.577-58.577-23.454-82.762-60.785c-26.357-40.683,10.081-72.662-12.113-126.327
					c-16.697-40.373-60.642-78.67-106.169-81.682c-54.114-3.581-77.704,44.858-123.513,31.613
					c-23.929-6.917-22.37-21.546-54.678-47.845c-56.07-45.641-96.748-30.878-143.261-63.512
					c-13.667-9.591-28.675-23.892-42.029-46.149c23.98,75.557,70.16,137.198,132.289,172.189
					c83.109,46.803,172.166,33.297,210.132,24.962c28.081,62.332,52.474,110.534,69.343,142.684
					c39.894,76.031,60.331,105.947,50.233,143.056c-4.112,15.113-12.866,32.119-6.287,51.982
					c5.122,15.459,18.903,24.931,32.623,31.999c52.769,27.183,250.219,96.989,290.134,28.525c2.877-4.933,4.533-14.215,7.728-32.576
					c1.991-11.437,3.558-22.405,4.794-32.715C2883.039,2549.081,2862.041,2565.215,2833.627,2573.111z"/>
			</g>
		</g>
		<g>
			
				<linearGradient id="SVGID_00000131332157712977763810000007291182167805180816_" gradientUnits="userSpaceOnUse" x1="3987.7761" y1="1832.0571" x2="4266.0928" y2="1608.5271" gradientTransform="matrix(-0.9308 0.3656 0.3656 0.9308 4590.3496 -734.6737)">
				<stop  offset="0" style="stop-color:#FFC444"/>
				<stop  offset="0.9964" style="stop-color:#F36F56"/>
			</linearGradient>
			<path style="fill:url(#SVGID_00000131332157712977763810000007291182167805180816_);" d="M1464.388,2207.663
				c0,0-219.209,161.657-374.958,63.762l-21.477,201.941c0,0,308.592,86.397,398.232-228.922L1464.388,2207.663z"/>
			<g>
				<g>
					
						<linearGradient id="SVGID_00000111182796975548354540000010023115368930432928_" gradientUnits="userSpaceOnUse" x1="3412.6995" y1="4008.4453" x2="1664.9137" y2="2580.9531">
						<stop  offset="0.1" style="stop-color:#311944"/>
						<stop  offset="0.267" style="stop-color:#371B47"/>
						<stop  offset="0.4803" style="stop-color:#462150"/>
						<stop  offset="0.7186" style="stop-color:#612A5F"/>
						<stop  offset="0.9736" style="stop-color:#853774"/>
						<stop  offset="1" style="stop-color:#893976"/>
					</linearGradient>
					<path style="fill:url(#SVGID_00000111182796975548354540000010023115368930432928_);" d="M1996.77,2583.883
						c39.818-3.56,71.413-40.136,70.583-81.693c-0.595-29.539-17.4-53.659-41.322-63.861c-0.355-0.158-0.672-0.277-1.027-0.395
						c-9.53-3.875-20.128-5.576-31.24-4.588c-2.095,0.198-4.113,0.514-6.169,0.87c-4.151-20.601-9.845-40.728-17.043-60.183
						c1.859-1.068,3.678-2.215,5.458-3.441c34.045-23.843,44.919-70.938,24.318-105.181c-7.671-12.732-18.624-21.867-31.12-27.086
						c-15.935-6.762-34.402-7.078-51.681-0.356c-5.576,2.175-10.994,5.062-16.213,8.699c-1.74,1.226-3.361,2.531-4.981,3.875
						c-13.446-14.868-28.234-28.668-44.17-41.242c1.108-1.82,2.214-3.677,3.203-5.654c18.307-36.023,41.955-75.25,13.523-93.676
						c-0.276-0.198-0.593-0.395-0.909-0.553c-1.145-0.672-2.332-1.345-3.518-1.938c-81.339-39.74-116.253-5.733-135.431,32.028
						c-0.357,0.712-0.674,1.424-0.989,2.135c-0.593,1.266-1.147,2.531-1.662,3.796c-19.572-5.456-39.384-9.213-59.352-11.309
						c0.12-2.096,0.238-4.192,0.197-6.327c-0.672-34.045,7.474-55.912-11.505-62.911c-3.323-1.226-7.553-2.729-12.772-3.005
						c-0.633-0.04-1.267-0.079-1.898-0.079h-3.64c-86.081,0-115.145,36.853-114.314,78.254c0.039,2.174,0.237,4.586,0.434,6.722
						c-10.637,3.005-21.155,6.603-31.514,10.518c-0.04,0-0.081,0.04-0.12,0.04c-9.134,3.441-18.11,7.276-27.007,11.388
						c-0.909-1.858-1.857-3.637-2.925-5.457c-7.671-12.732-18.624-21.826-31.12-27.046c-13.127-5.576-27.996-6.762-42.467-3.243
						c-8.74,2.096-17.4,5.931-25.426,11.585c-34.045,23.844-44.919,70.939-24.318,105.142c1.066,1.74,2.213,3.4,3.4,5.022
						c-13.365,13.365-26.019,27.798-37.802,43.18c-1.502,1.938-2.966,3.875-4.429,5.852c-1.699-1.068-3.4-2.096-5.219-3.045
						c-1.384-0.711-2.728-1.344-4.153-1.898c-34.124-14.512-75.327,1.938-93.754,38.237c-19.176,37.763-6.445,82.762,28.471,100.477
						c1.78,0.909,3.638,1.66,5.497,2.411c-6.485,20.918-11.39,41.954-14.67,63.031c-1.977,0-3.995,0.04-6.01,0.237
						c-39.82,3.559-71.413,40.096-70.583,81.694c0.396,19.692,7.988,36.972,20.126,49.308
						c13.484,13.722,32.504,22.362,53.461,20.505c1.74-0.158,3.52,0.216,5.259,0.216c0.039,0,0.039,0,0.079,0
						c0.276,0,0.554-1.087,0.83-1.128c0.041,0.158,0.079-0.207,0.079-0.048c0.039,0.039,0.039-0.163,0.039-0.125
						c4.153,20.364,9.768,40.093,16.846,59.391c0,0.039,0.041,0.057,0.041,0.098c-1.821,1.066-3.64,2.144-5.418,3.37
						c-19.574,13.72-31.516,34.86-34.165,56.846c-1.977,16.251,1.106,32.97,9.845,47.483c15.975,26.492,60.421,43.686,95.495,35.777
						c0.039,0,0.039,0,0.079,0c8.105,0,15.697-2.807,22.3-6.406c0.712,0.712,1.384,1.701,2.097,2.452
						c0.079,0.118,0.197,0.238,0.276,0.317c5.259,5.101,10.677,10.123,16.292,14.946c0.276,0.278,0.554,0.516,0.83,0.751
						c3.52,3.045,7.117,6.01,10.795,8.897c-0.041,0.04-0.041,0.079-0.079,0.12c-1.068,1.819-2.174,3.717-3.124,5.615
						c-3.796,7.474-6.327,15.224-7.712,22.974c-2.016,11.388-1.502,22.816,1.267,33.452c2.056,7.791,5.339,15.183,9.766,21.787
						c2.651,3.995,5.696,7.671,9.214,11.032c4.587,4.429,9.926,8.779,15.896,11.824c13.168,6.721,27.641,6.682,41.56,6.682
						c0.039,0,0.039,0,0.079,0c22.895-3.954,44.326-19.534,56.228-42.983c1.029-1.938,1.859-4.784,2.69-6.761
						c10.044,2.807,20.126,6.248,30.29,6.248h0.039c1.819,0,3.638,0,5.456,3.954c0.041,0,0.041,0,0.079,0
						c0.158,0,0.357-0.83,0.554-0.83c0.197,0.039,0.396-0.375,0.554-0.337c1.384,0.238,2.807,0.248,4.23,0.445
						c1.186,0.199,2.411,0.282,3.599,0.44c4.823,0.751,9.192,1.289,14.056,1.802c-0.158,2.056-0.691,3.778-0.691,5.834v0.434
						c0,0.5,0.535,0.94,0.56,1.39c0.014,0.382,0.265,0.767,0.301,1.141c0,0.396,0.124,0.751,0.162,1.147
						c0.118,1.819,0.378,3.599,0.616,5.338c0.039,0.554,0.149,1.068,0.228,1.622c3.914,24.673,19.51,44.326,40.625,53.262
						c0.792,0.355,1.63,0.672,2.498,0.989c1.188,0.437,2.417,0.871,3.682,1.267c0.355,0.158,0.753,0.276,1.149,0.355
						c7.75,2.215,16.094,3.083,24.753,2.332c1.819-0.158,3.599-0.396,5.339-0.71c0.475-0.079,0.989-0.158,1.464-0.278
						c36.536-6.841,64.532-41.558,63.742-80.706c-0.041-1.462-0.12-2.885-0.237-4.31c-0.041-0.434-0.079-0.909-0.12-1.344
						c-0.039-0.238-0.039-0.475-0.079-0.751c19.97-5.694,39.583-12.971,58.641-21.789c0.909,1.859,1.859,3.717,2.927,5.497
						c0.475,0.792,0.989,1.581,1.541,2.373c1.78,2.728,3.719,5.298,5.854,7.671c0.039,0.039,0.039,0.039,0.077,0.079
						c10.598,12.021,24.793,19.375,40.017,21.51c6.881,1.029,13.998,0.948,21.115-0.276c10.44-1.701,20.841-5.852,30.409-12.575
						c32.464-22.737,43.851-66.629,26.967-100.357c-0.434-0.871-0.871-1.74-1.384-2.611c-0.396-0.751-0.83-1.502-1.265-2.215
						c-1.068-1.74-2.214-3.4-3.4-4.981c15.064-15.106,29.182-31.475,42.229-49.034c1.701,1.07,3.402,2.097,5.221,3.006
						c8.897,4.508,18.346,6.802,27.876,7.078c4.626,0.197,9.214-0.118,13.801-0.909c22.893-3.875,44.286-19.02,56.228-42.508
						c19.138-37.762,6.445-82.721-28.471-100.436c-1.778-0.909-3.638-1.701-5.495-2.452c6.484-20.877,11.388-41.953,14.67-63.03
						C1992.737,2584.081,1994.753,2584.042,1996.77,2583.883z M1310.401,2836.557c0.434,0.473,0.871,0.948,1.305,1.423
						C1310.639,2837.308,1310.085,2836.794,1310.401,2836.557z M1477.308,2791.873c-126.693-64.335-172.917-227.642-103.284-364.774
						c35.588-70.068,94.505-119.732,160.541-143.023c42.428-14.907,87.784-18.941,131.753-10.438
						c21.551,4.111,42.745,11.269,63.111,21.59c12.652,6.445,24.555,13.84,35.547,22.184c1.068,0.751,2.135,1.581,3.203,2.411
						c4.665,3.598,9.134,7.395,13.484,11.309c1.778,1.622,3.518,3.243,5.257,4.943c0.278,0.238,0.554,0.515,0.832,0.792
						c1.819,1.74,3.597,3.519,5.337,5.337c0.237,0.238,0.514,0.475,0.712,0.752c1.661,1.7,3.282,3.4,4.864,5.179
						c0.396,0.435,0.792,0.87,1.185,1.345c1.583,1.74,3.085,3.479,4.549,5.259c0.315,0.316,0.593,0.632,0.83,0.989
						c1.502,1.74,2.925,3.519,4.309,5.337c5.97,7.552,11.467,15.422,16.489,23.646c1.186,1.858,2.294,3.797,3.4,5.695
						c0.317,0.514,0.593,1.027,0.871,1.542c0.989,1.66,1.898,3.322,2.769,5.022c0.514,0.87,0.989,1.779,1.462,2.688
						c0.83,1.581,1.662,3.164,2.411,4.746c3.006,6.01,5.775,12.139,8.304,18.386c0.989,2.373,1.898,4.784,2.809,7.196
						c0.79,2.175,1.581,4.39,2.332,6.604c0.593,1.621,1.106,3.243,1.622,4.864c0.355,1.107,0.71,2.215,1.027,3.322
						c0.434,1.304,0.792,2.57,1.147,3.835c0.396,1.304,0.751,2.57,1.068,3.835c0.473,1.502,0.869,3.045,1.226,4.547
						c1.344,5.22,2.529,10.478,3.558,15.777c0.554,2.926,1.068,5.813,1.543,8.74c0.473,2.807,0.869,5.615,1.224,8.462
						c0.041,0.356,0.081,0.711,0.12,1.107c0.276,2.017,0.514,4.033,0.71,6.049c0.158,1.424,0.278,2.808,0.396,4.231
						c0.12,1.147,0.199,2.294,0.278,3.48c0.158,1.74,0.276,3.519,0.355,5.298c2.807,49.507-7.316,101.307-31.95,149.825
						c-14.987,29.539-34.165,55.438-56.228,77.303c-2.334,2.294-4.667,4.547-7.04,6.762c-2.411,2.215-4.823,4.35-7.275,6.485
						c-1.346,1.147-2.69,2.332-4.072,3.44c-1.108,0.948-2.255,1.857-3.402,2.769c-2.491,2.016-5.022,3.993-7.592,5.931
						c-22.065,16.647-46.106,29.734-71.214,39.026c-4.112,1.504-8.225,2.927-12.378,4.232c-4.23,1.344-8.501,2.57-12.811,3.676
						c-0.079,0.041-0.158,0.041-0.238,0.079c-2.531,0.633-5.101,1.267-7.671,1.819c-2.61,0.633-5.259,1.187-7.908,1.66
						c-18.782,3.678-37.92,5.221-57.019,4.587c-2.61-0.079-5.18-0.197-7.75-0.434c-0.396,0-0.83-0.041-1.226-0.079
						C1537.609,2815.046,1506.609,2806.742,1477.308,2791.873z"/>
					
						<linearGradient id="SVGID_00000052070619390496285530000014207360210771698821_" gradientUnits="userSpaceOnUse" x1="3439.7461" y1="3975.2808" x2="1691.9916" y2="2547.8142">
						<stop  offset="0.1" style="stop-color:#311944"/>
						<stop  offset="0.267" style="stop-color:#371B47"/>
						<stop  offset="0.4803" style="stop-color:#462150"/>
						<stop  offset="0.7186" style="stop-color:#612A5F"/>
						<stop  offset="0.9736" style="stop-color:#853774"/>
						<stop  offset="1" style="stop-color:#893976"/>
					</linearGradient>
					<path style="fill:url(#SVGID_00000052070619390496285530000014207360210771698821_);" d="M1990.76,2584.081
						c-3.282,21.076-8.186,42.152-14.67,63.03c1.857,0.751,3.717,1.543,5.495,2.452c34.916,17.715,47.609,62.674,28.471,100.436
						c-11.942,23.488-33.335,38.633-56.228,42.508c-4.587,0.792-9.175,1.106-13.801,0.909c-9.53-0.276-18.979-2.57-27.876-7.078
						c-1.819-0.909-3.52-1.937-5.221-3.006c-13.048,17.559-27.166,33.927-42.229,49.034c1.186,1.581,2.332,3.242,3.4,4.981
						c0.434,0.713,0.869,1.464,1.265,2.215c0.514,0.83,1.029,1.701,1.502,2.57c19.219,34.244,32.622,83.75,0.12,106.526
						c-9.847,6.881-22.777,10.559-36.735,11.507c-13.681,0.909-28.708-0.79-42.311-4.784c-15.579-4.508-28.035-11.942-39.897-21.669
						v-1.977h0.593c-2.412,0-4.508-3.935-6.327-6.584c-0.552-0.792-1.066-1.097-1.541-1.888c-1.068-1.78-2.018-3.395-2.927-5.255
						c-19.058,8.818-38.671,16.216-58.641,21.91c0.041,0.276,0.041,0.574,0.079,0.812c0.041,0.435,0.672,0.94,0.712,1.374
						c0.118,1.068,0.83,2.127,0.83,3.471v0.869c0,41.283-7.474,84.146-47.095,84.146h-0.118
						c-19.812,1.106-36.101-0.672-49.269-4.784c-0.396-0.079-0.792-0.197-1.147-0.355c-1.265-0.396-2.491-0.83-3.678-1.267
						c-0.869-0.317-1.699-0.633-2.491-0.989c-25.268-10.36-37.368-30.131-40.61-53.262c-0.079-0.554-0.158-1.068-0.197-1.622
						c-0.237-2.056-0.436-4.113-0.554-6.207c0-0.079,0-0.199-0.039-0.278c-0.12-1.068-0.674-1.819-0.713-2.966
						c-0.041-2.135-0.396-3.755-0.396-5.891v-0.041c-3.954-0.473-9.134-1.106-13.959-1.819c-1.185-0.158-2.133-0.355-3.28-0.554
						c-1.423-0.197-2.728,0.475-4.112,0.238c-0.317-0.079-0.633,0.712-0.95,0.712c-0.039,0-0.039,0-0.079,0
						c-1.819-3.954-3.638-3.954-5.456-3.954h-0.039c15.301-31.634,31.276-62.655,44.761-94.96
						c4.943-11.863,10.756-23.635,14.71-35.577c0.039-0.041,0.039,0.103,0.039,0.064c0,0.158,4.23,0.348,7.078,0.468
						c0.276,0.039,0.514,0.074,0.751,0.074c19.138,0.672,38.119-0.851,56.901-4.49c2.649-0.514,5.259-1.057,7.908-1.652
						c2.57-0.552,5.14-1.181,7.671-1.814c0.079-0.039,0.158-0.036,0.238-0.077c4.309-1.106,8.58-2.331,12.811-3.675
						c4.153-1.305,8.266-2.689,12.378-4.231c25.187-9.214,49.229-22.341,71.372-39.026c2.57-1.938,5.022-3.915,7.513-5.931
						c1.147-0.911,2.253-1.821,3.323-2.769c1.382-1.108,2.726-2.294,4.072-3.44c2.452-2.135,4.864-4.271,7.275-6.485
						c2.373-2.215,4.705-4.468,7.04-6.762c22.063-21.866,41.241-47.765,56.228-77.303c24.635-48.518,34.758-100.318,31.95-149.825
						c-0.079-1.779-0.197-3.558-0.355-5.298c-0.079-1.187-0.158-2.333-0.278-3.48c-0.118-1.423-0.237-2.807-0.396-4.231
						c-0.197-2.016-0.434-4.032-0.71-6.049c-0.039-0.396-0.079-0.751-0.12-1.107c-0.355-2.847-0.751-5.654-1.224-8.462
						c-0.475-2.927-0.988-5.813-1.543-8.74c-1.029-5.299-2.215-10.557-3.558-15.777c-0.357-1.502-0.753-3.045-1.226-4.547
						c-0.317-1.266-0.672-2.531-1.068-3.835c-0.355-1.266-0.712-2.531-1.147-3.835c-0.317-1.107-0.672-2.215-1.027-3.322
						c-0.516-1.621-1.029-3.243-1.622-4.864c-0.751-2.215-1.543-4.429-2.332-6.604c-0.911-2.412-1.821-4.823-2.809-7.196
						c-2.529-6.248-5.298-12.377-8.304-18.386c-0.749-1.582-1.581-3.165-2.411-4.746c-0.473-0.909-0.948-1.819-1.462-2.688
						c-0.871-1.7-1.78-3.362-2.769-5.022c-0.278-0.515-0.554-1.028-0.871-1.542c-1.106-1.898-2.215-3.836-3.4-5.695
						c-5.022-8.224-10.519-16.094-16.489-23.646c-1.384-1.819-2.807-3.598-4.309-5.337c-0.238-0.356-0.516-0.673-0.83-0.989
						c-1.464-1.78-2.966-3.52-4.549-5.259c-0.394-0.475-0.79-0.909-1.185-1.345c-1.581-1.779-3.203-3.479-4.864-5.179
						c-0.199-0.277-0.475-0.515-0.712-0.752c-1.74-1.819-3.518-3.598-5.337-5.337c-0.278-0.277-0.554-0.554-0.832-0.792
						c-1.74-1.7-3.479-3.321-5.257-4.943c-4.35-3.914-8.82-7.711-13.484-11.309c-1.068-0.83-2.135-1.66-3.203-2.411
						c-0.792-0.633-1.543-1.226-2.332-1.78c2.609-4.745,5.219-9.529,7.829-14.274c29.34-53.659,59.154-107,89.363-160.184
						c6.881,19.256,5.972,41.914-4.468,62.477c-0.989,1.977-2.095,3.834-3.203,5.654c15.936,12.574,30.724,26.374,44.17,41.242
						c1.62-1.344,3.242-2.649,4.981-3.875c4.746-3.322,9.766-6.722,14.987-9.885c32.188-19.613,72.639-31.752,111.864,20.403
						c24.001,31.911-18.11,89.563-52.156,113.406c-1.78,1.226-3.599,2.373-5.458,3.441c7.198,19.454,12.892,39.582,17.043,60.183
						c2.056-0.356,4.074-0.711,6.169-0.87c11.111-0.989,21.709,0.712,31.24,4.588c0.355,0.118,0.672,0.237,1.027,0.395
						c23.922,10.202,40.727,34.322,41.322,63.861c0.83,41.558-30.765,78.134-70.583,81.693
						C1994.753,2584.042,1992.737,2584.081,1990.76,2584.081z"/>
					
						<linearGradient id="SVGID_00000106861960583949953770000009557949691168916156_" gradientUnits="userSpaceOnUse" x1="42.1149" y1="1546.704" x2="3032.8853" y2="3419.4299">
						<stop  offset="0" style="stop-color:#AA80F9"/>
						<stop  offset="0.9964" style="stop-color:#6165D7"/>
					</linearGradient>
					<path style="fill:url(#SVGID_00000106861960583949953770000009557949691168916156_);" d="M2034.295,2588.115
						c39.82-3.52,71.413-40.096,70.542-81.655c-0.83-41.598-33.767-72.401-73.547-68.842c-1.78,0.119-3.52,0.396-5.259,0.711
						c-0.317,0.04-0.593,0.119-0.909,0.158c-0.041-0.198-0.079-0.356-0.118-0.553c-4.153-20.404-9.808-40.334-16.925-59.669
						c1.857-1.068,3.678-2.175,5.456-3.401c34.047-23.843,44.921-70.938,24.32-105.181c-2.809-4.627-6.051-8.819-9.688-12.496
						c-15.382-15.777-37.289-22.499-58.958-18.861c-10.438,1.74-20.798,5.931-30.367,12.614c-1.742,1.185-3.361,2.53-5.024,3.875
						c-5.219-5.773-10.675-11.428-16.29-16.845c-0.396-0.435-0.83-0.831-1.226-1.187c-8.463-8.146-17.319-15.896-26.612-23.211
						c1.106-1.819,2.215-3.677,3.203-5.654c18.346-36.101,7.513-78.846-24.003-97.945c-0.276-0.198-0.593-0.395-0.909-0.553
						c-1.145-0.672-2.332-1.345-3.518-1.938c-34.877-17.715-78.729-1.464-97.907,36.299c-0.989,1.977-1.819,3.954-2.649,5.931
						c-11.863-3.321-23.845-6.01-35.864-8.067c-7.829-1.344-15.66-2.451-23.488-3.242c0.118-2.097,0.235-4.231,0.197-6.327
						c-0.672-32.662-21.037-59.273-49.032-67.182c-4.113-1.226-8.383-2.65-12.772-3.005c-0.633-0.04-1.267-0.079-1.898-0.079h-0.199
						c-1.147,0-2.294,0.554-3.441,0.554c-2.054,0-4.151,0.355-6.246,0.553c-39.779,3.519-71.374,40.253-70.544,81.812
						c0.041,2.175,0.199,4.39,0.436,6.485c-19.97,5.695-39.583,13.009-58.641,21.827c-0.909-1.858-1.859-3.677-2.927-5.456
						c-2.215-3.677-4.705-7.039-7.472-10.123c-0.04-0.04-0.081-0.079-0.12-0.119c-15.462-17.398-38.356-24.95-61.052-21.115
						c-8.463,1.383-16.884,4.389-24.831,9.054c-1.859,1.068-3.719,2.254-5.537,3.52c-34.045,23.884-44.919,70.938-24.318,105.182
						c1.068,1.74,2.215,3.4,3.4,5.022c-15.064,15.065-29.22,31.436-42.27,48.992c-1.66-1.028-3.4-2.056-5.18-3.005
						c-8.897-4.508-18.346-6.801-27.876-7.078c-4.588-0.198-9.214,0.119-13.801,0.909c-22.895,3.875-44.326,19.059-56.228,42.508
						c-19.178,37.763-6.445,82.762,28.43,100.477c1.819,0.909,3.678,1.66,5.536,2.411c-6.484,20.878-11.388,41.955-14.67,63.03
						c-1.977,0-3.993,0.04-6.049,0.237c-39.779,3.52-71.374,40.096-70.544,81.694c0.595,29.498,17.321,53.579,41.243,63.781
						c0.041,0,0.041,0.81,0.079,0.81c0.355,0.158,0.672,1.167,1.027,1.167h0.041c9.53,3.954,20.047,4.805,31.199,3.816
						c2.056-0.158,4.112-0.861,6.128-1.257c4.151,20.601,9.885,40.537,17.043,60.03c-1.819,1.068-3.638,2.08-5.418,3.306
						c-34.045,23.883-44.958,70.06-24.318,104.302c12.851,21.313,34.916,31.468,57.969,31.468c0.039,0,0.039,0,0.079,0
						c8.146,0,16.369-0.871,24.397-3.954c0.079,0,0.197-0.039,0.276-0.079c5.576-2.135,11.032-4.626,16.253-8.264
						c1.778-1.226,3.4-2.373,5.02-3.717c13.446,14.867,28.195,28.745,44.168,41.32c-1.145,1.819-2.213,3.796-3.201,5.734
						c-19.178,37.762-6.445,82.76,28.43,100.475c1.305,0.674,2.69,1.305,4.033,1.9c0.039,0,0.039,0.039,0.079,0.039
						c34.124,14.512,75.327-1.938,93.754-38.237c0.355-0.713,0.712-1.425,1.027-2.135c0.593-1.267,1.147-2.531,1.662-3.796
						c19.572,5.456,39.384,9.252,59.313,11.308c-0.12,2.135-0.199,4.23-0.158,6.366c0.593,29.539,17.398,52.789,41.399,62.991
						c0.475,0.197,0.989,0.396,1.464,0.593c5.576,2.176,11.507,3.44,17.715,3.44h0.118c4.192,3.954,8.503,1.344,12.892,0.95
						c2.45-0.238,4.863-0.554,7.275-1.029c34.599-6.682,61.032-38.119,62.812-74.813c0.079-1.622-0.296-3.282-0.296-4.983v-0.434
						c0-2.095,0-3.993,0-5.97v-0.199c11.863-3.045,21.234-6.406,31.595-10.32c0.039,0,0.118-1.01,0.156-1.01
						c0.12-0.039,0.317,2.908,0.475-1.046h0.041c8.976,0,17.873-6.149,26.691-10.221c0.909,1.857,1.857,4.24,2.925,6.02
						c7.671,12.731,18.586,22.108,31.079,27.329c6.605,2.846,13.643,4.627,20.879,5.181c15.778,1.188,32.344-3.023,47.016-13.304
						c9.053-6.327,16.448-14.284,22.024-23.22c13.959-22.105,16.925-50.046,6.565-73.692c-1.226-2.807-2.649-5.528-4.271-8.217
						c-1.029-1.74-2.215-3.396-3.361-5.018c0.317-0.317,0.672-0.67,0.948-0.987c13.05-13.089,25.347-27.203,36.854-42.19
						c1.502-1.898,2.966-3.875,4.429-5.813c1.699,1.068,3.4,2.097,5.219,3.006c1.384,0.713,2.728,1.344,4.153,1.898
						c34.124,14.511,75.286-1.898,93.713-38.237c19.178-37.764,6.445-82.721-28.43-100.438c-1.819-0.948-3.637-1.699-5.497-2.45
						c6.485-20.879,11.349-41.954,14.631-63.031C2030.261,2588.351,2032.279,2588.311,2034.295,2588.115z M1577.863,2817.734
						c-0.158,0-0.357-0.039-0.516-0.079c-0.039,0-0.079,0-0.118-0.039c-21.314-4.153-42.27-11.231-62.437-21.511
						c-126.654-64.296-172.876-227.604-103.244-364.736c30.13-59.353,77.028-104.074,130.803-130.488
						c38.949-19.178,81.536-28.708,123.964-27.244c34.323,1.146,68.526,9.529,100.635,25.86c1.186,0.594,2.373,1.226,3.52,1.859
						c124.003,65.482,168.725,227.01,99.724,362.876c-43.376,85.411-121.472,140.571-204.826,154.451
						C1636.423,2823.507,1606.848,2823.348,1577.863,2817.734z"/>
				</g>
				<path style="opacity:0.3;fill:#FFFFFF;" d="M1903.293,2923.549c-5.576,8.936-12.971,16.923-22.024,23.25
					c-14.672,10.281-31.238,14.552-47.016,13.365c-13.681,0.909-28.392-0.79-41.994-4.784c-15.224-2.135-29.419-9.49-40.017-21.51
					c-10.399,3.954-20.877,7.395-31.514,10.439c0.197,2.095,0.396,4.23,0.434,6.404c0.041,1.701,0,3.362-0.079,4.983
					c-1.581,36.893-28.471,68.131-63.188,74.813c-2.412,0.475-4.825,0.792-7.275,1.029c-4.389,0.394-8.7,3.004-12.892-0.95h-0.118
					c-19.812,1.106-36.101-0.672-49.269-4.784c-0.396-0.079-0.792-0.197-1.147-0.355c-1.265-0.396-2.491-0.83-3.678-1.267
					c-0.869-0.317-1.699-0.633-2.491-0.989c-25.268-10.36-37.368-30.131-40.61-53.262c-0.079-0.554-0.158-1.068-0.197-1.622
					c-0.237-2.056-0.931-4.113-1.048-6.207c-0.079-1.068-0.653-1.821-0.653-2.809v-0.434c0-2.056,0-3.834,0-5.891v-0.199
					c-3.954-0.514-9.134-1.027-13.957-1.778c-1.188-0.158-2.117-0.278-3.303-0.475c-1.423-0.197-2.698-0.435-4.082-0.672
					c-0.158-0.041-0.283-0.079-0.48-0.079c-0.197,0-0.359-0.041-0.517-0.079c-0.315,0.71-0.653,1.423-1.009,2.135
					c-18.427,36.298-59.62,52.748-93.744,38.237c-13.959,2.373-28.426,0.554-41.634-6.169c-5.97-3.045-11.306-6.879-15.894-11.349
					c-3.518-3.361-6.561-7.038-9.212-11.032c-4.468-6.603-7.75-13.958-9.765-21.787c-2.769-10.636-3.282-22.065-1.266-33.452
					c1.384-7.711,3.954-15.421,7.712-22.856c0.989-1.937,2.097-3.796,3.203-5.653c-0.041-0.041-0.041-0.041-0.079-0.079
					c-3.638-2.848-7.196-5.893-10.716-9.017c-0.276-0.235-0.554-0.473-0.83-0.751c-5.615-5.022-11.032-10.241-16.292-15.342
					c-0.079,0.041-0.197,0.079-0.276,0.079c-8.028,3.083-16.251,3.954-24.397,3.954c-0.04,0-0.04,0-0.079,0
					c-35.074,7.908-79.52-9.293-95.495-35.785c-8.739-14.514-11.822-31.24-9.845-47.491c2.61-22.182,14.552-43.496,34.165-57.257
					c1.778-1.226,3.558-2.135,5.377-3.163c0-0.041,0.041-0.041,0.041-0.041c-7.078-19.296-12.695-38.277-16.846-58.641
					c-0.041-0.039-0.041,0.713-0.041,0.713h-0.039c-0.317,0-0.593,0-0.909-0.12c-0.041,0-0.041,0.12-0.079,0.12
					c-0.039,0-0.039,0-0.079,0c-1.701,0-3.479-0.396-5.18-0.238c-20.956,1.859-39.976-6.267-53.461-19.989
					c-12.139-12.336-19.73-29.863-20.126-49.555c-0.83-41.598,30.763-78.259,70.583-81.818c2.016-0.197,4.033-0.298,6.01-0.298
					c3.28-21.076,8.185-42.144,14.67-63.061c-1.859-0.751-3.717-1.518-5.497-2.427c-34.916-17.715-47.647-62.722-28.471-100.484
					c18.427-36.299,59.63-52.752,93.754-38.241c4.587-0.791,9.214-1.109,13.801-0.911c11.783-15.381,24.438-29.816,37.802-43.18
					c-1.187-1.622-2.334-3.283-3.4-5.022c-20.601-34.203-9.727-81.299,24.318-105.143c8.026-5.654,16.686-9.49,25.426-11.586
					c5.692,3.835,11.585,7.948,17.636,12.297c45.433,32.939,98.656,80.587,128.55,138.793c2.769,5.497,5.418,11.111,7.789,16.805
					c-53.776,26.415-100.674,71.136-130.803,130.488c-69.633,137.132-23.41,300.439,103.244,364.736
					c20.167,10.28,41.123,17.358,62.437,21.511c0.276,0.039,0.514,0.039,0.751,0.039c19.138,0.672,38.119-0.869,56.901-4.508
					c2.649-0.514,5.259-1.066,7.908-1.66c2.57-0.552,5.14-1.186,7.671-1.819c4.785,3.165,9.768,6.209,14.907,9.017
					c50.099,27.679,117.201,38.633,205.381,23.488c0.041,0,0.079,0,0.118-0.041c10.48-1.778,21.234-3.954,32.305-6.524
					c0.158,0,0.278-0.039,0.436-0.079c2.529,4.784,4.626,9.569,6.248,14.315C1918.476,2875.11,1914.563,2900.061,1903.293,2923.549z
					"/>
			</g>
			<g>
				
					<linearGradient id="SVGID_00000091706077189480658320000014989173704619198355_" gradientUnits="userSpaceOnUse" x1="4292.522" y1="3546.3625" x2="4353.0088" y2="3214.8047" gradientTransform="matrix(-1 0 0 1 4994.5635 0)">
					<stop  offset="0" style="stop-color:#311944"/>
					<stop  offset="1" style="stop-color:#893976"/>
				</linearGradient>
				<path style="fill:url(#SVGID_00000091706077189480658320000014989173704619198355_);" d="M639.141,3186.931
					c-0.961-0.303-2.892-0.889-5.327-0.586c-3.08,0.385-5.213,1.978-6.434,2.912c-1.151,0.884-10.606,8.348-10.499,18.585
					c0.086,8.194,6.199,8.702,12.274,22.356c4.943,11.111,2.114,13.51,6.61,19.238c7.513,9.57,23.99,13.798,31.088,7.5
					c3.313-2.938,3.752-7.433,3.869-8.63c1.089-11.151-10.527-14.337-13.075-26.875c-2.556-12.58,7.3-18.421,2.571-25.556
					C658.298,3192.977,651.912,3190.963,639.141,3186.931z"/>
				
					<linearGradient id="SVGID_00000090267454359643517970000016161304685512298894_" gradientUnits="userSpaceOnUse" x1="4352.3379" y1="3289.0288" x2="4366.9961" y2="3431.2139" gradientTransform="matrix(-1 0 0 1 4994.5635 0)">
					<stop  offset="0" style="stop-color:#FFC444"/>
					<stop  offset="0.9964" style="stop-color:#F36F56"/>
				</linearGradient>
				<path style="fill:url(#SVGID_00000090267454359643517970000016161304685512298894_);" d="M648.352,3167.688
					c-10.529,9.69-15.113,20.464-11.807,25.974c1.231,2.05,3.511,3.3,4.523,3.856c7.062,3.874,14.582,1.036,16.011,0.466
					l13.567-19.061L648.352,3167.688z"/>
				
					<linearGradient id="SVGID_00000066492102650890046770000013924807985768268708_" gradientUnits="userSpaceOnUse" x1="4560.2915" y1="3472.4043" x2="4599.7393" y2="3256.1707" gradientTransform="matrix(-1 0 0 1 4994.5635 0)">
					<stop  offset="0" style="stop-color:#311944"/>
					<stop  offset="1" style="stop-color:#893976"/>
				</linearGradient>
				<path style="fill:url(#SVGID_00000066492102650890046770000013924807985768268708_);" d="M380.835,3241.547
					c-3.392-1.191-7.114-0.45-9.8,1.939c-4.155,3.695-10.181,9.468-13.387,14.468c-5.204,8.116,14.603,12,35.088,16.269
					c20.486,4.268,45.854,10.986,45.097,4.802c-0.756-6.183-6.636-15.578-26.441-25.637
					C406.143,3250.721,389.511,3244.596,380.835,3241.547z"/>
				
					<linearGradient id="SVGID_00000168083755082769808140000001909174607201107335_" gradientUnits="userSpaceOnUse" x1="4607.8213" y1="3267.1543" x2="4622.4316" y2="3408.8755" gradientTransform="matrix(-1 0 0 1 4994.5635 0)">
					<stop  offset="0" style="stop-color:#FFC444"/>
					<stop  offset="0.9964" style="stop-color:#F36F56"/>
				</linearGradient>
				<path style="fill:url(#SVGID_00000168083755082769808140000001909174607201107335_);" d="M382.882,3218.88l-8.569,27.156
					c0,0,4.655,8.819,17.015,3.618l14.269-23.7L382.882,3218.88z"/>
				
					<linearGradient id="SVGID_00000165953394070277968910000006829089184335414404_" gradientUnits="userSpaceOnUse" x1="3905.6282" y1="2206.4158" x2="3848.6509" y2="2061.7041" gradientTransform="matrix(-1 0 0 1 4994.5635 0)">
					<stop  offset="0" style="stop-color:#FFC444"/>
					<stop  offset="0.9964" style="stop-color:#F36F56"/>
				</linearGradient>
				<path style="fill:url(#SVGID_00000165953394070277968910000006829089184335414404_);" d="M1147.263,2051.667
					c0.014,0.075-40.504,58.359-79.31,69.782l102.323,16.636c0,0-13.353-4.505-13.353-23.254c0-11.688,9.102-39.782,9.102-39.782
					L1147.263,2051.667z"/>
				
					<linearGradient id="SVGID_00000037676507705319946350000013307106978246395276_" gradientUnits="userSpaceOnUse" x1="4027.5977" y1="3136.7917" x2="4632.4692" y2="2404.8086" gradientTransform="matrix(-1 0 0 1 4994.5635 0)">
					<stop  offset="0" style="stop-color:#444B8C"/>
					<stop  offset="0.9964" style="stop-color:#26264F"/>
				</linearGradient>
				<path style="fill:url(#SVGID_00000037676507705319946350000013307106978246395276_);" d="M927.692,2648.66
					c10.392,40.283,23.978,99.472,34.515,172.329c18.276,126.379,7.081,153.542,1.183,165.395
					c-21.917,44.05-58.214,52.563-149.659,107.164c-65.249,38.956-115.047,75.386-146.105,99.348
					c-4.607-0.736-11.748-2.453-19.422-6.87c-6.836-3.934-11.547-8.544-14.462-11.878c8.377-40.63,23.949-67.583,36.076-84.255
					c14.371-19.754,27.118-29.492,89.124-78.896c44.025-35.078,66.061-52.658,67.207-54.789
					c37.68-69.984-83.867-162.857-56.25-235.632C780.239,2693.326,814.482,2661.005,927.692,2648.66z"/>
				
					<linearGradient id="SVGID_00000179636993078337479810000009832546122262797710_" gradientUnits="userSpaceOnUse" x1="4027.5977" y1="3136.7917" x2="4632.4702" y2="2404.8076" gradientTransform="matrix(-1 0 0 1 4994.5635 0)">
					<stop  offset="0" style="stop-color:#444B8C"/>
					<stop  offset="0.9964" style="stop-color:#26264F"/>
				</linearGradient>
				<path style="opacity:0.3;fill:url(#SVGID_00000179636993078337479810000009832546122262797710_);" d="M669.818,3089.893
					c14.371-19.754,27.118-29.492,89.124-78.896c44.025-35.078,66.061-52.658,67.207-54.789
					c37.68-69.984-83.867-162.857-56.25-235.632c10.34-27.249,44.583-59.57,157.794-71.915c5.268,20.422,11.356,45.74,17.453,75.193
					c-41.578,21.381-54.432,42.658-56.901,59.952c-5.88,41.181,45.298,69.894,32.873,105.195
					c-10.084,28.648-49.23,25.199-56.981,54.789c-7.515,28.691,25.853,45.055,19.724,67.938
					c-10.015,37.389-105.211,16.582-155.601,65.747c-16.212,15.816-32.219,43.322-33.39,94.913
					c-10.245,7.525-19.36,14.425-27.244,20.508c-4.607-0.736-11.748-2.453-19.422-6.87c-6.836-3.934-11.547-8.544-14.462-11.878
					C642.119,3133.518,657.691,3106.564,669.818,3089.893z"/>
				
					<linearGradient id="SVGID_00000033327506508674625800000011437429453684071829_" gradientUnits="userSpaceOnUse" x1="4333.2236" y1="2945.905" x2="4626.8945" y2="2549.2302" gradientTransform="matrix(-1 0 0 1 4994.5635 0)">
					<stop  offset="0" style="stop-color:#444B8C"/>
					<stop  offset="0.9964" style="stop-color:#26264F"/>
				</linearGradient>
				<path style="fill:url(#SVGID_00000033327506508674625800000011437429453684071829_);" d="M948.512,2663.269
					c-33.765,23.126-80.757,56.638-134.781,99.716c-77.778,62.014-161.428,128.711-245.019,228.667
					c-45.358,54.237-104.537,134.811-158.537,244.266c-3.811,0.796-11.002,1.767-19.543-0.432
					c-10.226-2.637-16.773-8.373-19.598-11.176c-9.799-80.651,4.582-137.272,18.628-173.134
					c31.256-79.805,67.292-73.251,129.302-189.571c16.801-31.517,35.82-72.635,76.271-143.74
					c15.465-27.185,27.247-46.772,46.457-68.841c30.649-35.215,63.323-57.362,86.772-70.739
					C801.814,2606.614,875.163,2634.941,948.512,2663.269z"/>
				<g>
					
						<linearGradient id="SVGID_00000181796560168068650120000018220362648691560331_" gradientUnits="userSpaceOnUse" x1="579.667" y1="764.0558" x2="532.0692" y2="643.1659" gradientTransform="matrix(-0.9432 0.3322 0.3322 0.9432 1438.9695 1223.1097)">
						<stop  offset="0" style="stop-color:#311944"/>
						<stop  offset="1" style="stop-color:#893976"/>
					</linearGradient>
					<path style="fill:url(#SVGID_00000181796560168068650120000018220362648691560331_);" d="M1182.434,2031.058
						c3.225-10.609-4.366-26.567-16.866-31.185c-9.277-3.427-17.972,0.608-24.307,3.548c-2.933,1.361-23.463,11.188-24.51,28.444
						c-0.332,5.484,1.961,12.071,5.538,16.73c1.843,2.398,4.861,5.165,11.255,10.257c5.674,4.518,5.349,4.404,7.062,5.699
						c4.112,3.109,11.755,8.128,24.405,12.811c-0.298-3.08-0.473-6.961-0.131-11.353c0.131-1.69,0.714-8.317,2.958-14.426
						C1172.391,2039.184,1179.913,2039.353,1182.434,2031.058z"/>
					
						<linearGradient id="SVGID_00000095336669766809777820000002095994395838574526_" gradientUnits="userSpaceOnUse" x1="2060.6301" y1="637.4024" x2="2127.9922" y2="506.4204" gradientTransform="matrix(-0.6705 0.7419 0.7419 0.6705 2154.8911 117.3683)">
						<stop  offset="0" style="stop-color:#FFC444"/>
						<stop  offset="0.9964" style="stop-color:#F36F56"/>
					</linearGradient>
					<path style="fill:url(#SVGID_00000095336669766809777820000002095994395838574526_);" d="M1149.528,2073.675
						c0,0,15.476,12.733,34.647,4.631c17.164-7.253,6.034-47.532-8.092-51.987c-4.713-1.487-12.609-0.036-18.11,3.792
						c-3.25,2.262-3.947,4.182-9.326,7.773c-4.963,3.312-6.714,3.243-7.878,5.203c-1.457,2.449-1.486,7.223,5.959,17.542
						c-4.531-2.229-9.007-2.13-11.388,0.206c-0.38,0.372-1.3,1.613-1.545,3.092
						C1132.904,2069.281,1139.009,2073.596,1149.528,2073.675z"/>
				</g>
				
					<linearGradient id="SVGID_00000032637432433161201270000005433845405226598577_" gradientUnits="userSpaceOnUse" x1="3234.0044" y1="1971.829" x2="3494.7993" y2="2169.0688" gradientTransform="matrix(-1 0 0 1 4994.5635 0)">
					<stop  offset="0" style="stop-color:#FFC444"/>
					<stop  offset="0.8142" style="stop-color:#F57F53"/>
					<stop  offset="0.9964" style="stop-color:#F36F56"/>
				</linearGradient>
				<path style="fill:url(#SVGID_00000032637432433161201270000005433845405226598577_);" d="M1572.702,2094.875l24.07-24.741
					c0,0,30.031-14.66,51.946-3.702c21.916,10.958,2.784,9.442-8.47,10.932c-11.254,1.49-28.171,11.621-39.072,17.511
					c-10.9,5.894-22.588,13.752-22.588,13.752L1572.702,2094.875z"/>
				
					<linearGradient id="SVGID_00000021805268617978101620000015922405332964014477_" gradientUnits="userSpaceOnUse" x1="3831.0747" y1="2237.7852" x2="3977.1785" y2="2857.2671" gradientTransform="matrix(-1 0 0 1 4994.5635 0)">
					<stop  offset="0" style="stop-color:#FFC444"/>
					<stop  offset="0.9964" style="stop-color:#F36F56"/>
				</linearGradient>
				<path style="fill:url(#SVGID_00000021805268617978101620000015922405332964014477_);" d="M1570.551,2081.045
					c7.792,9.738,15.584,19.479,23.377,29.218c-21.343,72.741-55.571,112.725-83.279,135.877
					c-88.581,74.021-180.525,34.564-298.116,123.819c-36.288,27.544-59.164,55.312-78.199,78.417
					c-85.846,104.202-80.468,171.649-154.414,214.055c-40.717,23.349-79.895,24.432-105.541,25.143
					c-73.144,2.025-172.724-26.337-188.368-84.778c-2.978-11.125-2.11-20.332-1.581-24.997
					c14.326-126.362,163.914-299.65,224.27-367.451c42.099-47.295,78.388-85.505,134.416-94.969
					c23.467-3.964,42.43-1.426,80.358,3.651c68.969,9.233,90.476,24.685,151.026,37.419c40.852,8.591,86.478,18.188,137.037,10.535
					C1441.363,2162.466,1504.327,2147.194,1570.551,2081.045z"/>
				
					<linearGradient id="SVGID_00000007400660836583623540000014205174018969378699_" gradientUnits="userSpaceOnUse" x1="3796.1992" y1="2246.0103" x2="3942.3027" y2="2865.4912" gradientTransform="matrix(-1 0 0 1 4994.5635 0)">
					<stop  offset="0" style="stop-color:#FFC444"/>
					<stop  offset="0.9964" style="stop-color:#F36F56"/>
				</linearGradient>
				<path style="opacity:0.3;fill:url(#SVGID_00000007400660836583623540000014205174018969378699_);" d="M842.221,2617.246
					c22.906-48.326-2.952-84.573,26.299-120.536c35.354-43.467,87.964-8.745,140.26-50.406
					c60.727-48.377,35.779-131.837,87.663-151.218c32.599-12.178,47.341,18.94,96.429,10.958
					c53.104-8.638,54.154-48.035,107.387-65.747c57.85-19.249,84.979,17.844,162.176,13.149c15.381-0.938,32.043-3.635,49.699-8.586
					c-0.492,0.419-0.997,0.873-1.484,1.28c-88.581,74.021-180.525,34.564-298.116,123.819
					c-36.288,27.544-59.164,55.312-78.199,78.417c-85.846,104.202-80.468,171.649-154.414,214.055
					c-40.717,23.349-79.895,24.432-105.541,25.143c-28.489,0.788-60.951-3.094-90.939-11.51
					C815.909,2657.79,833,2636.7,842.221,2617.246z"/>
			</g>
		</g>
	</g>
</g>
</svg>
